<?xml version="1.0" encoding="UTF-8" standalone="no"?>
<svg
   fill="none"
   viewBox="0 0 2821 2320"
   version="1.1"
   id="svg6"
   sodipodi:docname="lucydebug.svg"
   inkscape:export-filename="lucydebughappy_edited.svg"
   inkscape:export-xdpi="96"
   inkscape:export-ydpi="96"
   inkscape:version="1.3.2 (091e20ef0f, 2023-11-25)"
   xmlns:inkscape="http://www.inkscape.org/namespaces/inkscape"
   xmlns:sodipodi="http://sodipodi.sourceforge.net/DTD/sodipodi-0.dtd"
   xmlns="http://www.w3.org/2000/svg"
   xmlns:svg="http://www.w3.org/2000/svg">
  <defs
     id="defs6" />
  <sodipodi:namedview
     id="namedview6"
     pagecolor="#ffffff"
     bordercolor="#000000"
     borderopacity="0.25"
     inkscape:showpageshadow="2"
     inkscape:pageopacity="0.0"
     inkscape:pagecheckerboard="0"
     inkscape:deskcolor="#d1d1d1"
     inkscape:zoom="0.27241379"
     inkscape:cx="1409.6203"
     inkscape:cy="1160"
     inkscape:window-width="1536"
     inkscape:window-height="836"
     inkscape:window-x="0"
     inkscape:window-y="0"
     inkscape:window-maximized="1"
     inkscape:current-layer="layer3" />
  <g
     inkscape:groupmode="layer"
     id="layer1"
     inkscape:label="Layer 1 (lucy debug fail)"
     style="display:inline">
    <path
       fill="#ffaff3"
       d="m 1391.62,307.436 c 26.29,-80.203 130.27,-100.947 185.33,-36.978 l 288.6,335.285 c 35.71,41.487 87.72,65.38 142.47,65.486 l 442.78,0.856 c 84.53,0.163 136.25,92.473 92.38,164.505 l -230.19,377.92 a 188.2,188.2 0 0 0 -18.39,155.67 l 135.82,420.9 c 25.87,80.19 -45.95,158.07 -128.25,138.64 L 1871.3,1828.01 a 188.63,188.63 0 0 0 -153.79,30.68 l -358.84,259.27 c -68.55,49.53 -164.76,5.17 -171.64,-78.81 l -36.1,-440.79 c -4.47,-54.56 -32.48,-104.45 -76.72,-136.7 L 716.624,1201.01 C 648.468,1151.33 660.8,1046.24 738.797,1013.65 L 1147.35,842.944 c 50.52,-21.109 89.37,-63.13 106.43,-115.144 z"
       color="#000000"
       id="path1" />
    <path
       fill="#151515"
       d="m 1494.256,193.922 c -60.276,0.797 -119.64,36.972 -140.647,101.055 l -137.838,420.359 a 148.4,148.4 0 0 1 -83.843,90.701 L 723.375,976.742 c -104.837,43.805 -122.023,189.743 -30.312,256.592 l 357.585,260.65 c 34.865,25.417 56.895,64.66 60.416,107.643 h -10e-4 l 36.101,440.791 c 9.264,113.083 142.791,174.542 234.932,107.967 l 358.838,-259.268 v 0 a 148.55,148.55 0 0 1 121.173,-24.174 l 430.87,101.711 c 110.627,26.118 210.344,-81.872 175.51,-189.851 v 0 l -135.82,-420.895 -10e-4,-0.01 a 148.12,148.12 0 0 1 14.482,-122.576 v 0 L 2577.34,857.4 v 0 c 59.031,-96.926 -12.848,-225.091 -126.467,-225.31 l -442.78,-0.857 c -43.161,-0.084 -84.096,-18.893 -112.232,-51.58 l -288.6,-335.286 c -30.1,-34.97 -71.768,-50.987 -113.01,-50.441 m 4.06,77.785 c 17.395,1.128 34.806,9.15 48.317,24.846 l 288.601,335.285 c 43.284,50.286 106.371,79.262 172.71,79.39 l 442.779,0.856 c 55.44,0.107 87.003,56.562 58.295,103.7 l -230.19,377.917 c -34.516,56.661 -42.66,125.612 -22.297,188.756 v 0 l 135.823,420.902 v 0 c 16.905,52.401 -27.018,100.172 -80.99,87.43 v 0 l -430.869,-101.71 v 0 c -64.563,-15.24 -132.629,-1.662 -186.402,37.185 l -358.842,259.271 c -44.959,32.485 -103.852,5.225 -108.348,-49.652 l -36.1,-440.791 c -5.417,-66.136 -39.409,-126.675 -93.023,-165.758 v 0 L 740.19,1168.688 c -44.602,-32.511 -37.124,-96.752 14.033,-118.127 L 1162.77,879.852 c 61.213,-25.577 108.34,-76.547 129.016,-139.586 v 0 l 137.84,-420.37 v -0.001 c 10.751,-32.8 39.694,-50.067 68.685,-48.188"
       color="#000000"
       id="path2" />
    <circle
       cx="1249.4301"
       cy="1279.2"
       r="78.570999"
       fill="#151515"
       transform="rotate(-11.283,1249.43,1279.2)"
       id="circle2"
       style="display:none" />
    <circle
       cx="1879.86"
       cy="1153.4301"
       r="78.570999"
       fill="#151515"
       transform="rotate(-11.283,1879.86,1153.43)"
       id="circle3"
       style="display:none" />
    <path
       fill="#151515"
       d="m 1670.55,1350.984 a 40,40 0 0 0 -15.607,0.01 l -123.609,24.66 a 40,40 0 0 0 -31.4,47.053 40,40 0 0 0 47.052,31.402 l 123.61,-24.66 a 40,40 0 0 0 31.4,-47.052 40,40 0 0 0 -31.445,-31.41"
       color="#000000"
       id="path3"
       inkscape:label="mouth"
       style="display:none" />
    <path
       fill="#fff2f8"
       fill-rule="evenodd"
       d="m 1206.16,1532.78 c -7.89,-33.66 -37.92,-57.46 -72.5,-57.46 H 113.508 c -49.069,0 -84.724,46.63 -71.863,93.99 l 177.984,655.3 c 8.809,32.43 38.253,54.94 71.862,54.94 H 1411.29 l -132.43,-436.86 z"
       clip-rule="evenodd"
       id="path4" />
    <path
       fill="#f8b8e6"
       d="m 1411.29,2279.55 252.79,-315.24 c 39.78,-48.62 5.19,-121.62 -57.63,-121.62 h -327.59 z"
       id="path5" />
    <path
       fill="#151515"
       d="m 1408.1,2279.55 v 40 c 11.99,0 23.36,-5.38 30.96,-14.67 z m -102.48,-436.86 -38.75,9.93 7.71,30.07 h 31.04 z m 360.41,121.62 -30.96,-25.33 z m -1444.457,260.3 -38.602,10.48 z M 43.59,1569.31 82.191,1558.82 Z m 1182.61,-36.53 -38.94,9.14 c 0.06,0.26 0.13,0.53 0.19,0.79 z m -79.22,-97.46 H 115.452 v 80 H 1146.98 Z M 4.988,1579.79 l 177.983,655.3 77.203,-20.97 -177.983,-655.3 z m 288.447,739.76 H 1408.1 v -80 H 293.435 Z m 1145.625,-14.67 257.92,-315.24 -61.91,-50.66 -257.93,315.24 z m -94.69,-472.12 -79.42,-309.91 -77.5,19.86 79.42,309.91 z m 264.02,-30.07 h -302.77 v 80 h 302.77 z m 88.59,186.95 c 61.15,-74.74 7.98,-186.95 -88.59,-186.95 v 80 c 29.08,0 45.09,33.78 26.68,56.29 z M 182.971,2235.09 c 13.542,49.86 58.802,84.46 110.464,84.46 v -80 c -15.556,0 -29.183,-10.42 -33.261,-25.43 z m -67.519,-799.77 c -75.426,0 -130.234,71.68 -110.464,144.47 l 77.203,-20.97 c -5.953,-21.92 10.55,-43.5 33.261,-43.5 z m 1031.528,80 c 20.16,0 37.51,14.78 40.28,26.6 l 77.88,-18.27 c -13.02,-55.51 -69.18,-88.33 -118.16,-88.33 z"
       id="path6" />
  </g>
  <g
     inkscape:groupmode="layer"
     id="layer2"
     inkscape:label="Layer 2 (happy eyes)"
     style="display:none">
    <path
       d="m 611.82905,570.83116 c -9.89,3.82 -17.87,11.42 -22.16,21.12 -4.3,9.7 -4.57,20.71 -0.75,30.6 4.94,12.78 12.34,24.46 21.79,34.38 v 0 0 c 9.45,9.92 20.76,17.87 33.29,23.41 l 0.01,0.01 c 12.51,5.54 26,8.56 39.68,8.89 l 0.01,0.01 h 0.02 c 13.68,0.32 27.28,-2.05 40.05,-6.98 h 0.01 c 12.77,-4.93 24.45,-12.33 34.37,-21.78 l 0.01,-0.01 v 0 c 9.91,-9.45 17.86,-20.75 23.4,-33.27 5.55,-12.53 8.58,-26.03 8.9,-39.73 0.25,-10.61 -3.73,-20.88 -11.05,-28.56 -7.32,-7.67 -17.4,-12.12 -28,-12.37 -5.25,-0.12 -10.48,0.79 -15.38,2.68 -4.9,1.9 -9.37,4.74 -13.17,8.37 -3.8,3.62 -6.85,7.96 -8.98,12.77 -2.12,4.8 -3.28,9.98 -3.4,15.23 -0.07,3.17 -0.77,6.3 -2.06,9.2 l -0.01,0.01 -0.01,0.02 c -1.29,2.91 -3.14,5.55 -5.44,7.74 v 0.01 c -2.31,2.19 -5.02,3.91 -7.99,5.05 l -0.01,0.01 v 0 c -2.98,1.15 -6.15,1.7 -9.34,1.63 -3.18,-0.08 -6.32,-0.79 -9.23,-2.08 h -0.02 l -0.01,-0.01 c -2.91,-1.28 -5.54,-3.13 -7.73,-5.43 v -0.01 0 c -2.2,-2.31 -3.93,-5.03 -5.08,-8 -3.82,-9.9 -11.41,-17.87 -21.11,-22.17 -9.7,-4.29 -20.71,-4.56 -30.61,-0.74 z m -347.927,-155.046 c -7.905,0.31 -15.541,2.957 -21.94096,7.606 -6.401,4.65 -11.279,11.093 -14.018,18.514 -1.819,4.926 -2.65,10.166 -2.444,15.416 0.206,5.25 1.443,10.41 3.642,15.18 2.198,4.77 5.315,9.06 9.172,12.62 3.857,3.57 8.379,6.34 13.30696,8.16 l 28.763,10.61 -23.396,19.81 c -8.096,6.86 -13.13796,16.65 -14.01596,27.22 -0.878,10.57 2.48,21.06 9.33496,29.16 6.855,8.09 16.646,13.13 27.218,14.01 10.572,0.88 21.06,-2.48 29.156,-9.33 l 75.731,-64.12 c 5.335,-4.52 9.393,-10.36 11.768,-16.93 2.376,-6.58 2.988,-13.66 1.774,-20.55 -1.214,-6.88 -4.211,-13.33 -8.692,-18.69 -4.482,-5.37 -10.291,-9.47 -16.849,-11.89 l -93.096,-34.353 c -4.927,-1.819 -10.165,-2.649 -15.414,-2.443 z M 1020.019,282.4622 c -5.01,1.603 -9.65,4.175 -13.66,7.57 l -75.71995,64.12296 c -5.34,4.519 -9.39,10.356 -11.77,16.931 -2.37,6.574 -2.99,13.657 -1.77,20.541 1.21,6.884 4.21,13.33 8.69,18.696 4.48,5.366 10.29,9.463 16.84997,11.885 l 93.08998,34.353 c 9.95,3.67 20.96,3.24 30.59,-1.2 9.63,-4.44 17.11,-12.526 20.78,-22.478 1.82,-4.928 2.65,-10.167 2.45,-15.416 -0.21,-5.248 -1.45,-10.406 -3.65,-15.176 -2.19,-4.771 -5.31,-9.062 -9.17,-12.628 -3.85,-3.566 -8.38,-6.338 -13.3,-8.156 l -28.76,-10.613 23.39,-19.81 c 4.01,-3.395 7.31,-7.546 9.72,-12.216 2.4,-4.67 3.86,-9.768 4.3,-15.00296 0.43,-5.235 -0.17,-10.505 -1.77,-15.507 -1.6,-5.003 -4.18,-9.641 -7.57,-13.65 -5.11,-6.037 -11.9,-10.423 -19.51,-12.603 -7.6,-2.18 -15.68,-2.055 -23.22,0.357"
       fill="#151515"
       id="path3-3"
       sodipodi:insensitive="true"
       style="display:inline" />
  </g>
  <g
     inkscape:groupmode="layer"
     id="layer3"
     inkscape:label="Layer 3 (lucy eyes)"
     style="display:inline">
    <path
       d="m 1525.5472,1370.1883 c -4.9,1.89 -9.38,4.73 -13.19,8.35 -3.8,3.62 -6.86,7.96 -8.98,12.76 -2.13,4.81 -3.29,9.98 -3.42,15.23 -0.13,5.25 0.78,10.48 2.67,15.38 4.94,12.77 12.34,24.45 21.79,34.37 v 0 c 9.45,9.92 20.76,17.87 33.29,23.41 l 0.01,0.01 c 12.51,5.54 25.99,8.56 39.68,8.89 h 0.01 0.02 c 13.68,0.32 27.29,-2.05 40.06,-6.98 h 0.01 c 12.77,-4.93 24.45,-12.33 34.36,-21.78 h 0.01 v -0.01 c 9.91,-9.44 17.86,-20.75 23.4,-33.26 5.56,-12.53 8.58,-26.04 8.9,-39.74 0.25,-10.6 -3.72,-20.87 -11.04,-28.55 -7.33,-7.67 -17.4,-12.12 -28.01,-12.37 -5.25,-0.13 -10.47,0.79 -15.37,2.68 -4.9,1.9 -9.38,4.74 -13.18,8.37 -3.8,3.62 -6.85,7.96 -8.97,12.77 -2.12,4.8 -3.28,9.98 -3.4,15.23 -0.08,3.17 -0.78,6.3 -2.07,9.2 v 0.01 l -0.01,0.02 c -1.29,2.91 -3.14,5.54 -5.44,7.74 -2.31,2.2 -5.02,3.92 -7.99,5.06 l -0.02,0.01 c -2.98,1.15 -6.15,1.7 -9.34,1.63 -3.18,-0.08 -6.32,-0.79 -9.23,-2.08 h -0.02 l -0.01,-0.01 c -2.91,-1.29 -5.53,-3.13 -7.73,-5.43 v -0.01 0 c -2.2,-2.31 -3.92,-5.02 -5.07,-8 -1.89,-4.9 -4.73,-9.38 -8.35,-13.18 -3.63,-3.8 -7.96,-6.86 -12.77,-8.98 -4.8,-2.13 -9.98,-3.29 -15.23,-3.42 -5.25,-0.13 -10.47,0.78 -15.37,2.68 z"
       fill="#151515"
       id="path5-5"
       style="fill:#151515;fill-opacity:1" />
    <path
       d="m 1188.9021,1195.8409 c -7.905,0.31 -15.541,2.957 -21.941,7.606 -6.401,4.65 -11.279,11.093 -14.018,18.514 -1.819,4.926 -2.65,10.166 -2.444,15.416 0.206,5.25 1.443,10.41 3.642,15.18 2.198,4.77 5.315,9.06 9.172,12.62 3.857,3.57 8.379,6.34 13.307,8.16 l 28.763,10.61 -23.396,19.81 c -8.096,6.86 -13.138,16.65 -14.016,27.22 -0.878,10.57 2.48,21.06 9.335,29.16 6.855,8.09 16.646,13.13 27.218,14.01 10.572,0.88 21.06,-2.48 29.156,-9.33 l 75.731,-64.12 c 5.335,-4.52 9.393,-10.36 11.768,-16.93 2.376,-6.58 2.988,-13.66 1.774,-20.55 -1.214,-6.88 -4.211,-13.33 -8.692,-18.69 -4.482,-5.37 -10.291,-9.47 -16.849,-11.89 l -93.096,-34.353 c -4.927,-1.819 -10.165,-2.649 -15.414,-2.443 z"
       fill="#151515"
       id="path3-35"
       style="display:inline;fill:#151515;fill-opacity:1" />
    <path
       d="m 1910.6392,1060.9182 c 7.6558,-1.9933 15.7312,-1.6719 23.2036,0.9237 7.4735,2.5963 14.0089,7.3499 18.7802,13.6592 3.168,4.1878 5.4814,8.9624 6.8051,14.047 1.3237,5.0845 1.6346,10.3816 0.9117,15.5841 -0.7219,5.2022 -2.4625,10.2112 -5.1228,14.7359 -2.6574,4.5343 -6.183,8.4955 -10.3725,11.665 l -24.456,18.4875 28.1316,12.1829 c 9.7361,4.2205 17.398,12.1301 21.3004,21.9925 3.9024,9.8624 3.7273,20.8754 -0.4873,30.6139 -4.2174,9.7289 -12.1285,17.3892 -21.9923,21.2941 -9.8637,3.9049 -20.8754,3.7272 -30.6086,-0.4837 l -91.0587,-39.4318 c -6.4156,-2.7807 -11.9914,-7.1947 -16.1679,-12.795 -4.1803,-5.6095 -6.817,-12.2086 -7.6511,-19.1549 -0.8311,-6.9366 0.1689,-13.9783 2.905,-20.4065 2.7341,-6.4382 7.1063,-12.0452 12.682,-16.2612 l 79.1523,-59.8491 c 4.1887,-3.1684 8.9617,-5.4802 14.0453,-6.8036 z"
       fill="#151515"
       id="path3-35-7"
       style="display:inline;fill:#151515;fill-opacity:1;stroke:none;stroke-opacity:1" />
  </g>
</svg>
